<svg xmlns="http://www.w3.org/2000/svg" viewBox="0 0 480 340" role="img"><title>Üstel evren: n=5, B=10000</title><desc>Hazır CSV üzerinden yoğunluk histogramı. Eksen değerleri şekil üzerinde gösterilir.</desc><rect width="480" height="340" fill="white"/><text x="55" y="23" font-size="16">Üstel evren: n=5, B=10000</text><text x="55" y="40" font-size="11">Yoğunluk</text><rect x="55.000" y="269.646" width="11.429" height="0.354" fill="#087f5b" stroke="white"/><rect x="66.429" y="259.918" width="11.429" height="10.082" fill="#087f5b" stroke="white"/><rect x="77.857" y="226.664" width="11.429" height="43.336" fill="#087f5b" stroke="white"/><rect x="89.286" y="174.484" width="11.429" height="95.516" fill="#087f5b" stroke="white"/><rect x="100.714" y="129.025" width="11.429" height="140.975" fill="#087f5b" stroke="white"/><rect x="112.143" y="91.349" width="11.429" height="178.651" fill="#087f5b" stroke="white"/><rect x="123.571" y="79.144" width="11.429" height="190.856" fill="#087f5b" stroke="white"/><rect x="135.000" y="74.545" width="11.429" height="195.455" fill="#087f5b" stroke="white"/><rect x="146.429" y="89.227" width="11.429" height="180.773" fill="#087f5b" stroke="white"/><rect x="157.857" y="107.622" width="11.429" height="162.378" fill="#087f5b" stroke="white"/><rect x="169.286" y="132.916" width="11.429" height="137.084" fill="#087f5b" stroke="white"/><rect x="180.714" y="162.456" width="11.429" height="107.544" fill="#087f5b" stroke="white"/><rect x="192.143" y="183.151" width="11.429" height="86.849" fill="#087f5b" stroke="white"/><rect x="203.571" y="201.370" width="11.429" height="68.630" fill="#087f5b" stroke="white"/><rect x="215.000" y="226.133" width="11.429" height="43.867" fill="#087f5b" stroke="white"/><rect x="226.429" y="236.216" width="11.429" height="33.784" fill="#087f5b" stroke="white"/><rect x="237.857" y="243.114" width="11.429" height="26.886" fill="#087f5b" stroke="white"/><rect x="249.286" y="251.781" width="11.429" height="18.219" fill="#087f5b" stroke="white"/><rect x="260.714" y="253.196" width="11.429" height="16.804" fill="#087f5b" stroke="white"/><rect x="272.143" y="260.448" width="11.429" height="9.552" fill="#087f5b" stroke="white"/><rect x="283.571" y="263.102" width="11.429" height="6.898" fill="#087f5b" stroke="white"/><rect x="295.000" y="264.870" width="11.429" height="5.130" fill="#087f5b" stroke="white"/><rect x="306.429" y="267.170" width="11.429" height="2.830" fill="#087f5b" stroke="white"/><rect x="317.857" y="266.816" width="11.429" height="3.184" fill="#087f5b" stroke="white"/><rect x="329.286" y="268.408" width="11.429" height="1.592" fill="#087f5b" stroke="white"/><rect x="340.714" y="269.292" width="11.429" height="0.708" fill="#087f5b" stroke="white"/><rect x="352.143" y="269.823" width="11.429" height="0.177" fill="#087f5b" stroke="white"/><rect x="363.571" y="270.000" width="11.429" height="0.000" fill="#087f5b" stroke="white"/><rect x="375.000" y="269.469" width="11.429" height="0.531" fill="#087f5b" stroke="white"/><rect x="386.429" y="270.000" width="11.429" height="0.000" fill="#087f5b" stroke="white"/><rect x="397.857" y="270.000" width="11.429" height="0.000" fill="#087f5b" stroke="white"/><rect x="409.286" y="269.823" width="11.429" height="0.177" fill="#087f5b" stroke="white"/><rect x="420.714" y="270.000" width="11.429" height="0.000" fill="#087f5b" stroke="white"/><rect x="432.143" y="270.000" width="11.429" height="0.000" fill="#087f5b" stroke="white"/><rect x="443.571" y="270.000" width="11.429" height="0.000" fill="#087f5b" stroke="white"/><text x="55" y="292" text-anchor="middle" font-size="12">0.0</text><text x="50" y="270" text-anchor="end" font-size="11">0.000</text><text x="135" y="292" text-anchor="middle" font-size="12">8.0</text><text x="50" y="227" text-anchor="end" font-size="11">0.021</text><text x="215" y="292" text-anchor="middle" font-size="12">16.0</text><text x="50" y="184" text-anchor="end" font-size="11">0.043</text><text x="295" y="292" text-anchor="middle" font-size="12">24.0</text><text x="50" y="141" text-anchor="end" font-size="11">0.064</text><text x="375" y="292" text-anchor="middle" font-size="12">32.0</text><text x="50" y="98" text-anchor="end" font-size="11">0.085</text><text x="455" y="292" text-anchor="middle" font-size="12">40.0</text><text x="50" y="55" text-anchor="end" font-size="11">0.106</text><text x="255" y="322" text-anchor="middle" font-size="12">Örneklem ortalaması</text><path d="M55 55 V270 H455" stroke="black" fill="none"/></svg>